<?xml version="1.0" encoding="UTF-8"?>
<svg xmlns="http://www.w3.org/2000/svg" viewBox="0 0 1000 881">
  <defs>
    <style>
      .cls-1 {
        fill: #fff4f4;
        stroke: #fff4f4;
      }

      .cls-1, .cls-2, .cls-3, .cls-4, .cls-5, .cls-6, .cls-7 {
        stroke-miterlimit: 10;
      }

      .cls-8, .cls-9, .cls-10, .cls-11 {
        font-family: Arial-Black, 'Arial Black';
        font-weight: 800;
      }

      .cls-8, .cls-12 {
        font-size: 12px;
      }

      .cls-13 {
        font-size: 6px;
      }

      .cls-14, .cls-11 {
        font-size: 8px;
      }

      .cls-15 {
        font-size: 10px;
      }

      .cls-16 {
        font-size: 23px;
      }

      .cls-17 {
        font-size: 35px;
      }

      .cls-10, .cls-4, .cls-11 {
        fill: #fff;
      }

      .cls-2 {
        fill: red;
        stroke: red;
      }

      .cls-3 {
        fill: #ff9f9f;
        stroke: #ff9f9f;
      }

      .cls-4 {
        stroke: #fff;
      }

      .cls-5 {
        stroke: #000;
      }

      .cls-18 {
        letter-spacing: -.02em;
      }

      .cls-19 {
        letter-spacing: -.02em;
      }

      .cls-20 {
        letter-spacing: -.03em;
      }

      .cls-21 {
        letter-spacing: -.03em;
      }

      .cls-6 {
        fill: #f55;
        stroke: #f55;
      }

      .cls-7 {
        fill: #ffc9c9;
        stroke: #ffc9c9;
      }

      .cls-22 {
        letter-spacing: .06em;
      }

      .cls-23 {
        letter-spacing: .02em;
      }

      .cls-24 {
        letter-spacing: .02em;
      }

      .cls-25 {
        letter-spacing: .02em;
      }

      .cls-26 {
        letter-spacing: .02em;
      }

      .cls-27 {
        letter-spacing: .05em;
      }

      .cls-28 {
        letter-spacing: .04em;
      }

      .cls-29 {
        letter-spacing: .03em;
      }

      .cls-30 {
        letter-spacing: 0em;
      }
    </style>
  </defs>
  <g id="Lag_8">
    <rect class="cls-5" x="-.5" y="-.5" width="1000" height="881"/>
  </g>
  <g id="Lag_2">
    <path class="cls-2" d="M519.5,539.5c.61,2.18,1.32,1.9,3,5,2.25,4.14,2.06,6.28,5,10,1,1.26,2.5,2.48,11,5,13.18,3.91,14.78,2.47,17,5,4.27,4.85-.75,11.09,4,17,2.72,3.38,7.3,5,11,5,5.65,0,6.03-3.77,14-5,5.1-.79,7.8-1.2,11,0,1.81.68,4.07,1.98,6,1,.88-.45,1.46-1.25,2-2,1.6-2.23,1.6-4,2-4,1.03-.01-.4,11.55,5,15,1.38.88,3.25.92,7,1,3.67.08,6.82.14,9-2,1.4-1.38,1.8-3.07,2-4,.95-4.34-1.12-8.19-2-10-2.91-6.01-.43-5.65-4-21-2.97-12.77-4.19-10.87-5-18-1.03-9.03.92-12.01-2-18-1.69-3.46-3.24-4.3-5-9-1.04-2.78-2.23-5.94-2-10,.31-5.49,2.82-5.86,3-12,.06-2.13-.19-3.79,1-5,1.48-1.5,3.5-.6,5-2,1.12-1.05,1.2-2.67,1-6-.44-7.13-.66-10.69-2-13-2.62-4.5-6.79-6.45-8-7-2.58-1.17-2.96-.58-9-2-1.91-.45-5.65-1.34-10-3-1.69-.65-1.68-.72-9-4-6.07-2.72-6.77-2.98-8-3-1.77-.03-4.03.43-9,4-5.43,3.9-6.44,6.01-11,10-4.55,3.98-4.57,2.79-13,9-2.2,1.62-6.75,5.06-12,10-4.92,4.64-6.73,7.09-8,10-.62,1.41-3.06,7-1,9,1.02.99,2.6.57,10-1,8.04-1.71,9.56-1.93,11-1,.71.46,1.87,1.51,3,8,1.14,6.57-.86,8.62,1,13,1.01,2.37,1.67,2.07,3,5,1.4,3.08,1.67,5.64,2,9,1.32,13.61,1.17,16.19,1,18-.54,5.73-1.61,7.69-3,9-.3.29-3.08,2.83-6,2-1.79-.51-3.31-2.21-3-3,.28-.72,1.84-.22,4-1,0,0,2.29-.83,4-3,1.49-1.88,1.52-4.09,1-10-.7-7.99-1.05-11.98-2-15-1.6-5.11-2.55-4.65-4-10-1.31-4.84-1.96-7.25-2-10-.03-2.54.31-4.4-1-6-1.19-1.45-3.02-1.81-4-2-.94-.18-3.9-.76-6,1-2,1.68-2,4.45-2,6,0,3.77,1.79,6.93,3,9,1.91,3.28,3.41,4.3,3,6-.12.48-.4,1.08-3,3-3.87,2.85-4.54,2.48-6,4-2.1,2.18-2.61,4.92-3,7-.28,1.5-.67,3.59,0,6Z"/>
    <path class="cls-2" d="M632.5,564.5c-.91,1.47-.96,2.94-1,4-.03.91.03,2.47,1,5,.71,1.85,2.74,7.16,5,7,1.28-.09,2.07-1.9,3-4,.99-2.24,2.95-6.69,1-11-.46-1.03-1.66-3.68-4-4-2.21-.31-4.16,1.64-5,3Z"/>
  </g>
  <g id="Lag_3">
    <path class="cls-1" d="M518.5,537.5c-.43.13.24,2.49,0,7-.16,2.99-.24,4.48-1,6-.78,1.55-1.65,2.18-2,4-.29,1.53-.04,3,0,3,.07,0,.96-4.04-1-6-1.01-1.01-2.01-.69-3-2-.73-.97-.87-2.04-1-3-.3-2.27.46-2.72,0-4-.61-1.67-2.03-1.26-3-3-1.13-2.03.22-3.66-1-5-.32-.36-.58-.41-3-1-4.74-1.15-5.2-1.28-6-1-1.4.49-1.24,1.31-3,2-1.07.42-3.25.95-4,0-.81-1.02.48-3.15,1-4,.56-.92,1.07-1.77,2-2,.88-.22,1.27.33,3,1,2.26.87,4.32.97,5,1,1.03.04,1.19-.06,3,0,1.57.05,1.77.14,2,0,1.18-.71.21-5.25-2-10-4.01-8.6-9.83-12.98-9-14,.52-.64,3.22.63,4,1,2.76,1.3,2.97,2.47,5,3,1.75.45,4.25.29,5-1,.16-.28.28-.68-1-5-.52-1.76-.81-2.59-1-4-.2-1.47-.3-2.2,0-3,.6-1.6,1.89-1.36,3-3,.37-.54.58-2.04,1-5,.4-2.88.41-3.46,0-4-.73-.95-2.16-.98-3-1-1.95-.04-3.33.64-6,2-5.28,2.69-5.29,2.75-6,3-2.95,1.06-5.48,1.03-7,1-4.49-.09-5.32-1.54-11-3-2.85-.73-1.94-.19-14-2-5.12-.77-6.37-1.03-8-2-2.22-1.32-2.87-2.61-6-4-.92-.41-2.72-1.12-5-1-1.04.05-2.57.13-3,1-.16.32-.43,1.28,2,4,2.94,3.3,6.17,5.07,8,6,2.1,1.07,5.3,2.68,10,4,5.55,1.56,7.29,1.07,9,3,1.19,1.35,1.46,3.23,2,7,.66,4.64.99,6.96,0,9-.67,1.38-.99.93-8,6-3.16,2.28-4.37,3.3-6,3-.89-.16-1.85-.71-4-1-1.17-.16-1.75-.23-2,0-.99.94,1.9,4.23,3,10,.44,2.29.67,3.61,0,5-.93,1.93-2.75,2.22-6,4-3.9,2.13-3.04,2.68-7,5-1.85,1.08-4.57,2.06-10,4-3.81,1.36-5.24,1.74-6,1-.77-.74-.72-2.46,0-3,.79-.59,1.93.58,3,0,.89-.48,1.27-1.93,1-3-.63-2.46-4.75-2.97-5-3-2.87-.32-5.22.98-7,2-3.78,2.16-4.02,4-6,4-2.43,0-2.69-2.79-6-4-1.14-.42-1.99-.41-9,1-7.29,1.47-8.78,1.95-9,3-.27,1.32,1.64,2.73,2,3,3.25,2.41,6.12.1,10,2,1.65.81,1.12,1.23,5,5,4.17,4.05,6.33,5.07,6,6-.45,1.27-4.66-.24-10,2-1.1.46-4.12,1.73-4,3,.14,1.44,4.19,1.61,12,4,4.32,1.32,6.48,1.99,8,3,6.46,4.31,7.77,11.72,8,13,.32,1.8.23,3.01,0,4-.57,2.47-2.12,4.1-3,5-2.53,2.59-3.9,2.06-5,4-.94,1.65-1.27,4.38,0,6,1.8,2.29,5.28.41,8,3,.54.51,1.02,1.67,2,4,1.7,4.06,2.58,7.31,3,9,.59,2.36.88,3.54,1,5,.2,2.41.43,5.2-1,8-1.54,3.02-4.28,4.6-5,5-2.39,1.34-3.84,1.09-6,3-.89.78-1.84,1.64-2,3-.26,2.22,1.81,3.85,2,4,.24.19,2.08,1.56,4,1,2.18-.63,2.68-3.24,4-3,.52.09,1.02.6,1,1-.02.42-.62.53-1,1-.19.23-.66.97,0,3,.88,2.7,2.82,4.77,4,6,4,4.16,3.98,3.54,5,5,.22.31,3.93,5.74,2,9-1.21,2.04-4.15,2.42-4,3,.14.57,2.79-.25,4,1,1.02,1.05-.65,2.55,0,5,.46,1.73,1.74,2.87,3,4,1.05.94,1.86,1.67,3,2,2.34.69,4.25-.8,7-2,0,0,3.24-1.41,9-2,3.92-.4,7.61,1.07,15,4,5.19,2.06,10.69,3.25,16,5,.63.21,2.02.67,3,0,1.32-.91.58-2.99,2-4,.87-.62,2.25-.61,3,0,1.2.98.76,3.48,0,5-.85,1.71-1.99,1.95-2,3,0,1.54,2.39,2.71,3,3,5.11,2.49,10.95.73,11,1,.06.33-9.12.61-11,5-1.16,2.7.51,6.83,3,9,2.72,2.37,5.52,1.63,9,5,.98.95,2.33,2.54,2,3-.41.57-3.01-1.14-8-3-5.12-1.91-8.6-2.44-12-2-1.7.22-2.8.36-3,1-.57,1.79,7.12,3.64,15,11,2.73,2.54,5.11,5.41,10,9,2.53,1.86,4.06,2.68,6,3,3.37.55,4.6-.99,7,0,2.73,1.12,2.17,3.53,5,5,2.29,1.19,4.72.68,8,0,.82-.17,3.22-1.12,8-3,2.86-1.13,4.29-1.72,6-3,1.34-1,2.3-1.73,3-3,1.46-2.66.63-5.7,0-8-1.26-4.64-3.17-5.49-3-9,.03-.65.13-2.25,1-4,1.08-2.17,2.13-2.1,3-4,.16-.34,1.39-3.18,0-6-.58-1.18-1.41-1.81-3-3-2.92-2.19-4.04-1.92-5-3-2.26-2.53-.12-8.49,2-12,3.98-6.58,10.69-9.15,13-10,7.57-2.78,9.78-.14,18-3,4.31-1.5,9.49-3.3,12-8,2.69-5.04.92-10.79-1-17-2.41-7.81-6.27-11.61-7-16-.06-.39-.21-1.41-1-2-1.28-.96-2.62.42-5,0-2.7-.48-4.99-2.99-5-3-1.25-.31-3.04-.88-5-2-1.4-.8-5.11-2.92-7-7-.66-1.42-1.3-3.53-1-8,.22-3.16.69-10.11,5-17,7.42-11.85,23.48-13.42,23-15-.19-.64-2.77-.4-7,0-3.37.32-6.4.6-10,2-3.93,1.53-3.53,2.44-6,3-4,.9-9.19-.54-12-4-2.51-3.08-2.77-7.33-3-11-.22-3.54.31-5.17-1-7-1.17-1.63-2.98-2.26-6-3-7.1-1.74-8.72-1.07-12-2-8.5-2.4-13.5-11.33-15-14-2.28-4.07-3.43-8.17-4-8Z"/>
    <path class="cls-1" d="M473.5,744.5c.42,2.12-.65,3,0,4,.62.95,2.11.97,4,1,2.23.03,3.67.05,5-1,2.21-1.74,2.02-4.75,2-5-.04-.46-.22-2.77-2-4-1.5-1.03-3.19-.65-6,0-1.88.43-3.67.84-4,2-.26.9.66,1.25,1,3Z"/>
    <path class="cls-1" d="M457.5,755.5c.81.2,1.41-.15,3-1,4.22-2.25,4.58-2.19,5-3,.64-1.21.61-2.78,0-4-.58-1.17-1.53-1.73-2-2-1.56-.89-4.16-1.37-6,0-1.24.92-1.57,2.27-2,4-.3,1.21-.64,2.58,0,4,.15.32.76,1.69,2,2Z"/>
    <path class="cls-1" d="M470.5,761.5c-.2.14-2.24,1.67-2,4,.11,1.07.73,2.61,2,3,1.63.5,3.25-1.2,4-2,.21-.23,3.04-3.27,2-5-.86-1.43-4.05-1.41-6,0Z"/>
    <path class="cls-1" d="M564.5,728.5c-1.53-.26-2.63-2.93-2-5,.52-1.71,2.33-3.39,4-3,1.38.32,1.96,1.88,2,2,.63,1.78-.57,3.42-1,4-.37.5-1.64,2.23-3,2Z"/>
    <path class="cls-1" d="M572.5,738.5c.31-.49,1.23-2.09,1-4-.24-1.94-1.38-1.93-2-4-.55-1.85-.36-4.24,1-6,.28-.36,1.29-1.67,3-2,1.29-.25,2.45.17,4,1,4.4,2.36,4.44,3.99,7,5,3.04,1.2,3.74-.8,8,0,1.99.37,3.99,1.58,8,4,3.88,2.34,5.82,3.51,7,5,.47.59,3.16,4.09,3,9-.06,1.82-.15,4.41-2,6-1.86,1.6-4.48,1.29-7,1-3-.35-3.51-1.08-7-2-2.3-.6-5.8-1.53-10-1-2.36.3-5.52.69-8,3-2.26,2.11-1.65,3.66-4,8-1.96,3.62-3.87,7.15-7,8-5.18,1.41-10.75-5.27-12-4-.47.48.05,1.71,1,4,1.53,3.66,2.66,4.37,3,6,.52,2.47-1.32,4.48-4,8-4.89,6.43-8.12,10.68-10,16-1.87,5.28-.62,6.58-3,10-2.65,3.81-5.06,3.44-7,7-1.16,2.12-1.12,5.11-1,11,.12,6.11.19,9.17,1,13,.99,4.66,2.16,6.66,1,8-1.35,1.56-4.8,1.03-7,0-4.01-1.87-5.58-6.14-7-10-.32-.86-1.67-4.65-2-10-.26-4.24.21-7.98,0-8-.33-.04.04,9.21-4,11-1.52.67-2.58-.18-8-2,0,0-4.88-1.64-11-3-5.93-1.32-8.96-1.96-12-1-1.58.5-2.78,1.23-7,5-9.24,8.25-8.91,9.57-11,10-5.52,1.13-8.02-8.07-21-18-4.85-3.71-11.61-8.87-21-12-5.68-1.89-8.79-3.59-15-7-2.08-1.14-3.69-2.1-5-4-2.94-4.26-2.88-11.06,0-13,1.65-1.11,2.98.2,8-1,2.8-.67,3.58-1.36,4-2,1.18-1.78.29-4.22,0-5-1.18-3.22-3.29-3.5-5-6-2.7-3.95-1.44-9.17-1-11,1.55-6.43,6.38-9.85,8-11,5.83-4.13,11.98-4.07,15-4,3.27.08,10.34.25,15,5,3.97,4.05,1.45,6.58,5,13,0,0,4.08,7.38,26,15,.22.08.73.24,1,0,.43-.39-.33-1.33,0-2,.5-1.03,2.87.08,5-1,1.14-.58,1.76-1.72,3-4,.61-1.12,1.47-2.73,2-5,.73-3.14.11-4.45,1-5,1.24-.77,3.78.95,5,2,2.47,2.13,2.64,4.26,5,5,.46.14,1.35.42,2,0,1.29-.83.73-4.01,0-6-2.02-5.5-6.77-5.64-7-9-.21-3.12,3.63-6.9,7-7,2.95-.09,4.31,2.68,7,2,2.27-.57,2.23-2.78,4-3,2.97-.37,4,5.71,9,7,2.38.61,3.03-.54,6,0,.75.14,6.25,1.03,7,4,.26,1.01-.3,1.2,0,2,.76,1.99,4.36,1.02,10,3,2.35.83,3.16,1.5,4,1,1.67-.99,1.43-5.38,0-6-1.12-.49-2.11,1.74-5,2-1.89.17-3.37-.61-4-1-1.42-.89-3.52-2.98-3-5,.55-2.11,3.58-2.72,5-3,2.51-.5,6.29-.28,8,2,.7.93.93,2.02,1,2,.14-.05-2.32-4.06-1-7,.41-.9.92-1.16,6-4,4.93-2.76,5.17-2.92,6-3,2.63-.24,4.02,1.06,6,0,1.11-.59,1.72-1.56,2-2Z"/>
    <path class="cls-1" d="M426.5,677.5c-.37.55-.4,1.26,1,5,1.62,4.32,2.39,5.33,3,6,.93,1.01,2.04,2.22,3,2,1.97-.46,3.6-5.2,2-8-.37-.65-.48-.41-2-2-2.48-2.58-2.67-3.7-4-4-1.06-.24-2.42.13-3,1Z"/>
    <path class="cls-1" d="M397.5,654.5c-.23-.48-.05-1.01,1-3,2.18-4.12,3.27-6.18,4-6,.48.12.66,1.41,1,4,.38,2.85.55,4.29,0,5-1.35,1.71-5.3,1.44-6,0Z"/>
  </g>
  <g id="Lag_4">
    <path class="cls-7" d="M365.5,764.5c-.14-2.21-2.35-2.62-3-5-.59-2.14.6-4.13,3-8,3.22-5.2,5.35-6.33,6-10,.3-1.7-.8-2.95,0-4,.85-1.12,2.49-.77,4-1,5.26-.78,8.82-8.39,10-13,.89-3.47-.1-3.18,1-9,.7-3.73,1.71-7,4-10,1.12-1.46,2.38-3.07,4-3,2.12.09,3.53,3.02,4,4,2.85,5.93.69,13.24-1,18-4.36,12.3-8.08,14.64-13,26-2.53,5.84-3.69,10.23-6,19-2.66,10.08-4.07,18.49-9,30-3.26,7.61-4.88,9.17-6,9-1.86-.28-1.22-5.15-5-15-.97-2.53-2.07-4.96-3-9-1.1-4.76-1.12-5.58-1-6,.79-2.85,3.32-2.98,8-8,2.86-3.07,3.05-4.24,3-5Z"/>
    <path class="cls-7" d="M326.5,784.5c1.56-.07,1.31-1.52,5-4,3.42-2.31,4.74-1.8,7-4,.65-.63,2.32-2.3,3-5,.17-.66,1.08-4.26-1-7-.43-.57-1.58-2.09-3-2-1.89.13-2.32,2.99-4,3-1.65,0-2.9-2.78-3-3-.99-2.26.04-3.33-1-5-.9-1.45-2.84-2.51-4-2-1.54.67-1.04,3.83-2,4-.78.14-1.44-1.89-3-4-1.24-1.68-2.84-2.81-6-5-5.55-3.86-5.47-2.67-8-5-2.21-2.03-3.47-3.02-6-5-.97-.76-1.58-1.21-2-1-1.32.67.72,7.14,1,8,.59,1.83,1.19,3.17,2,5,1.42,3.19,2.14,4.79,3,6,2.11,2.95,4.05,3.82,4,6-.02.9-.37,1.42,0,2,.65,1.03,2.38.47,4,1,2.17.71,3.08,3.05,4,5,.77,1.62,5.76,12.18,10,12Z"/>
    <path class="cls-7" d="M351.5,764.5c-1.34-1-.33-4.02,0-5,.63-1.88,2.03-4.22,3-4,.49.11.69.82,1,2,.66,2.46,1.22,4.56,0,6-.98,1.16-3,1.75-4,1Z"/>
    <path class="cls-7" d="M340.5,736.5c-.28,1.14.11,1.79,2,6,2.3,5.11,2.6,6.12,4,7,1.41.89,2.81.95,4,1,4.8.21,8.38-2.69,10-4,1.39-1.12,3.91-3.47,5-7,.63-2.03.24-2.72,0-3-.88-1.03-2.71.06-4-1-.71-.59-.82-1.73-1-4-.23-2.82.18-3.08,0-6-.12-1.89-.36-2.85,0-3,.44-.19,1.44.95,2,2,.44.83.38,1.19,1,3,.62,1.81.86,1.95,1,2,1,.37,2.55-1.47,3-2,1.18-1.39.96-1.91,2-3,1.18-1.24,1.96-1.1,3-2,1.5-1.3,1.7-3.2,2-5,0,0,1.11-6.71,4-13,1.6-3.48,2.29-3.45,3-6,1.01-3.64.43-6.67,0-9,0,0-3.8-20.79,0-27,.45-.73,1-1,1-1,1.05-.51,1.85.29,3,0,.99-.25,1.79-1.2,2-2,.47-1.78-1.74-3.71-3-5-4.69-4.82-2.51-7.39-8-16-2.44-3.82-2.61-2.91-6-8-3.73-5.6-6.39-9.69-5-12,1.42-2.35,5.78-.73,8-4,1.11-1.64,1.02-3.52,1-4-.13-2.7-1.83-4.35-3-6-2.19-3.1-1.36-4.58-3-11-1.19-4.66-3.85-15.06-9-16-1.05-.19-3.34-.19-4,1-.29.52-.32,1.35,0,2,.28.56.72.75,1,1,1.21,1.07,1.06,3.67,0,5-.45.56-.7.45-1,1-.4.74-.11,1.23,0,3,.06,1,0,2,0,3,0,.67-.02,1.33,0,2,.07,2.16.33,2.77,0,3-.63.44-2.09-1.46-3-1-.69.35-.03,1.55-1,3-.42.63-1.07,1.19-2,2-.7.61-1.06.85-1,1,.14.36,2.11-.76,4,0,.15.06,1.54.64,2,2,.21.63.13,1.16,0,2-.21,1.33-.69,2.49-1,3-1.39,2.31-4.93.82-10,3-2.02.87-5.16,2.22-6,5-.39,1.3-.16,2.52-1,3-.85.48-2.39-.03-3-1-.97-1.55.38-4.34,2-6,2.34-2.4,4.49-1.63,6-4,.59-.93.73-1.95,1-4,.52-3.9-.33-5.84,1-7,.76-.66,1.3-.27,2-1,1.13-1.19,1.21-3.79,0-5-1.19-1.19-2.67-.06-6-1-.61-.17-2.53-.73-4-2-2.37-2.04-2.37-4.88-3-7-2.33-7.88-15.21-12.61-18-10-1.62,1.52-.09,5.77-1,6-.66.17-1.07-2.19-3-3-2.14-.89-4.81.69-7,2-2.05,1.22-3.33,2.41-4,3-3.05,2.67-4.96,2.85-12,6-6.03,2.69-9.04,4.04-12,6-3.1,2.06-6,4.47-11,6-2.16.66-3.95.92-5,0-1.27-1.11-.42-3-2-5-.93-1.18-2.13-1.65-3-2-.35-.14-3.73-1.44-7,0-2.74,1.21-2.06,2.86-5,5-3.73,2.72-6.86,1.54-8,4-.68,1.45-.21,3.21,0,4,.56,2.11,1.54,2.09,2,4,.47,1.96-.42,2.51,0,5,.13.79.42,1.54,1,3,1.44,3.66,2.16,5.49,3,6,1.65,1.01,2.88-.18,6,1,0,0,.93.28,2,1,.66.45.99.68,1,1,.03.78-1.82.94-2,2-.12.73.59,1.53,1,2,.62.7.94.67,1,1,.17.91-2.21,1.28-3,3-.68,1.47.14,3.19,1,5,.72,1.51,1.42,3,3,4,2.15,1.36,3.62.37,6,2,1.05.72,1.65,1.52,2,2,1.06,1.44,1.69,3.19,2,7,.09,1.15.23,3.32,0,8-.3,6.03-.73,6.56,0,8,1.23,2.43,3.14,2.27,4,5,.59,1.89-.03,2.91,1,4,.91.96,1.93.75,3,2,.46.54.71,1.1,1,2,.9,2.84.99,5.46,1,6,.13,5.19-.45,5.36,0,8,.31,1.8.62,3.51,2,5,1.03,1.11,3.27,2.77,5,2,1.99-.88,2-4.36,2-5,0-1.6-.66-3.42-2-7-.96-2.57-1.44-3.58-1-4,.47-.45,1.42.3,4,1,2.8.76,3.24.28,5,1,.67.27,2.66,1.08,4,3,1.58,2.26.94,4.17,3,6,.63.56,1.01.66,1,1-.03,1.31-5.83.71-8,4-.38.58-.59,2.05-1,5-.6,4.3-.2,4.8,0,5,1.01.98,2.47-.49,6,0,.55.08,2.81.43,5,2,.77.55,1.47,1.06,2,2,.7,1.24.36,1.89,1,3,.77,1.33,2.4,2.37,3,2,.97-.6-1.63-4.32,0-7,.88-1.45,2.57-1.9,3-2,3.22-.75,5.8,2.14,10,5,4.52,3.08,8.45,4.43,13,6,6.86,2.37,12.25,2.87,14,3,2.99.23,5.69,1.44,8,0,.75-.47,1.5-1.31,3-3,2.42-2.72,3.16-4.2,4-4,.62.15,1.07,1.14,1,2-.12,1.43-1.71,2.16-5,4-1.05.59-4.73,2.66-8,5-3.47,2.49-3.85,3.41-4,4Z"/>
    <path class="cls-7" d="M319.5,740.5c-.14-1.99,2.22-3.5,3-4,1.65-1.06,4.61-2.19,6-1,.45.38.23.58,1,2,.8,1.47,1.18,1.54,2,3,.78,1.38,1.2,2.14,1,3-.27,1.12-1.43,1.71-2,2-2.54,1.29-5.29.26-6,0-.35-.13-2.43-.93-4-3-.56-.74-.95-1.25-1-2Z"/>
    <path class="cls-7" d="M305.5,728.5c-2.1-2.06-3.15-3.11-3-4,.19-1.13,1.5-1.76,2-2,.26-.13,2.22-1.03,4,0,1.23.71,1.63,1.9,2,3,.37,1.1.94,2.8,0,4-.46.58-1.22.99-2,1-.66,0-1.25-.28-3-2Z"/>
    <path class="cls-7" d="M291.5,724.5c-.32-.73-.22-1.48,0-3,.25-1.78.38-2.67,1-3,1.09-.58,2.79.83,3,1,.51.43,2.35,1.9,2,4-.23,1.36-1.35,2.93-3,3-1.4.06-2.55-.99-3-2Z"/>
    <path class="cls-7" d="M248.5,657.5c-1.07-3.4-1.97-3.28-2-5-.02-1.37.52-3.38,2-4,.09-.04,1.04-.42,2,0,.91.4,1.12,1.2,2,3,1.49,3.04,1.93,2.89,2,4,.09,1.41-.52,3.23-2,4-.85.44-2.14.62-3,0-.58-.42-.68-1-1-2Z"/>
    <path class="cls-7" d="M237.5,765.5c.48-1.68,2.5-2.74,4-3,1.35-.23,1.68.28,5,1,3.45.75,3.66.32,5,1,1.68.85,1.79,1.74,4,4,1.71,1.75,3.17,3.25,5,4,1.66.68,2.69.36,9-1,7.85-1.7,10.19-2.05,11-4,.25-.6.12-.8,0-3-.36-6.42.59-6.86,0-11-.51-3.6-1.3-3.78-1-6,.35-2.64,1.7-4.16,1-5-.65-.79-2.09.2-4,0-2.87-.31-3.45-2.95-8-8-3.84-4.27-6.39-5.67-6-8,.24-1.43,1.43-2.37,1-3-.48-.7-2.03.31-4,0-2.28-.36-2.76-2.14-6-5-1.49-1.32-3.36-2.97-6-4-2.67-1.04-3.14-.28-8-1-5.66-.84-7.2-2.19-9-1-1.46.97-.79,2.07-3,4-1.37,1.19-2.54,1.57-3,3-.1.3-.38,1.17,0,2,.18.39.52.81,3,2,1.77.85,1.8.74,2,1,.76.99-.12,2.04,0,5,.05,1.37.27,1.83,0,2-.54.34-1.91-1.18-5-4-2.6-2.37-3.92-3.56-5-4-1.42-.57-2.59-.56-7,0-7.25.92-9.75,1.6-10,1-.16-.39.72-1.1,6-5,4.38-3.23,6.18-4.51,6-6-.16-1.37-1.8-1.46-2-3-.22-1.66,1.58-2.4,3-5,1.62-2.97,1.81-6.63,1-7-.63-.29-2.29,1.26-3,3-.46,1.12-.3,1.78-1,4-.58,1.83-.87,1.96-1,2-1.08.31-3.42-2.19-3-4,.28-1.19,1.57-1.33,2-3,.16-.61.11-1.08,0-2-.31-2.65-1.18-3-1-4,.29-1.58,2.57-1.29,7-4,2.14-1.31,2.66-2.02,4-2,1.71.02,2.41,1.18,4,1,1.35-.16,2.27-1.15,3-2,3.73-4.34,6-9,6-9,2.64-5.41,3.09-7.6,5-8,1.48-.31,2.47.74,4,0,1.09-.53,1.96-1.73,2-3,.07-2.1-2.18-3.71-4-4-1.61-.26-3.02.49-4,1-1.88.99-2.05,1.87-3,2-2.23.31-4.58-4.17-5-5-2.69-5.27-1.8-8.14-3-16-1.52-10-4.04-12.5-2-17,.65-1.42.76-.87,4-6,3.04-4.81,3.84-6.73,4-9,.1-1.53.24-3.51-1-5-1.45-1.74-3.97-1.86-8-2-4.66-.16-6.8.56-7,0-.29-.83,3.84-3.83,9-5,4.54-1.03,5.82.29,9-1,3.23-1.31,2.88-3.06,7-7,6.15-5.88,9.79-4.72,13-10,1.15-1.9.98-2.53,3-6,1.47-2.52,2.47-3.73,2-5-.44-1.21-1.98-1.84-3-2-1.69-.27-2.34.68-5,1-.08.01-1.79.21-3,0-3.19-.55-5-4.29-6-6-5.32-9.05-16.71-10.07-16-13,.41-1.68,4.32-2.04,6-2,6.51.14,9.85,6.7,10,7,.58,1.2.69,3.03,1,3,.36-.03-.05-2.35,1-3,.99-.61,2.49.78,5,2,.45.22,4.2,2.01,8,2,3.09,0,7.58-1.21,8-3,.78-3.36-16.51-3.42-29-16-2.51-2.53-5.01-6.35-10-14-8.88-13.6-8.67-16.56-13-19-7.72-4.35-17.85-.28-26,3-16.89,6.79-21.23,16.34-28,14-6.93-2.4-6.69-13.9-16-16-.94-.21-2.63-.14-6,0-10.86.45-16.29.68-19,3-5.61,4.79-.7,13.27-6,17-3.91,2.75-10.84,1.14-15-2-5.69-4.3-4.62-10.28-9-12-3.37-1.32-7.23,1.29-13,5-7.23,4.64-7.71,7.41-12,8-2.98.41-5.65-.73-11-3-7.82-3.32-10.18-6.12-12-5-1.72,1.05-.7,4.22-1,11-.2,4.46-.83,7.48-2,13-.69,3.27-2.26,10.53-6,19-1.49,3.37-3.85,8.14-5,15-.49,2.94-.38,4,0,5,1.5,3.9,6.05,3.67,12,8,.76.55.51.43,7,7,7.93,8.02,9.6,9.52,11,9,1.75-.66,2.11-4.11,2-6-.12-2.17-.93-3.57-3-7-4.86-8.05-5.88-9.42-6-12-.14-2.89.92-5.91,2-6,.83-.07,1.3,1.62,4,7,3.3,6.59,4.32,7.49,5,8,1.87,1.41,3.19,1.4,4,3,.97,1.91-.27,3.21,0,5,.54,3.58,6.41,4.65,16,9,9.32,4.22,11.12,6.54,12,8,1.58,2.61,1.72,4.93,2,9,1.57,22.83,1.44,11.4,2,26,.46,12.08.29,13.13,1,17,.26,1.4,1,5.2,2,11,.73,4.24.96,5.87,1,8,.02,1,.04,4.15-1,9-1.83,8.57-4.13,9.24-5,16-.44,3.43-.22,6.19,0,9,.48,6.02,1.48,6.6,2,12,.55,5.72-.47,6.11,0,13,.43,6.21.7,9.55,3,11,1.99,1.25,4.21.29,9-1,4-1.08,11.04-2.98,16-3,8.08-.03,6.83,4.94,19,8,19.65,4.95,20,5,20,5,.79.12,2.84.43,4,2,1.02,1.39.54,2.65,1,5,.43,2.19,1.56,4.67,3,6,.65.6,2.63,2.15,11,1,9.05-1.24,13.15-3.92,15-2,1.65,1.71-.42,5.05,1,6,1.63,1.09,4.86-2.97,11-6,3.07-1.52,9.63-4.75,16-3,6.21,1.71,7.51,6.85,11,6,3.21-.78,5.82-6.02,5-10-.7-3.41-3.67-4.66-3-7Z"/>
    <path class="cls-7" d="M68.5,708.5c-.46-1.24,1.05-2.6,2-4,.64-.95,1.62-2.78,1-13-.53-8.71-1.41-10.12,0-12,1.63-2.18,4.5-2.55,8-3,1.86-.24,9.48-1.22,11,2,1.03,2.19-1.1,5.57-2,7-1.44,2.28-2.26,2.2-3,4-.85,2.06-.18,3.16,0,7,.19,3.97.31,6.53-1,9-.64,1.21-.74.74-5,5-3.08,3.08-3.96,4.26-5,4-1.25-.32-.87-2.25-3-4-1.51-1.24-2.64-1.04-3-2Z"/>
    <path class="cls-7" d="M79.5,657.5c-.71-1.7-.9-4.59,1-6,1.57-1.17,3.77-.71,5,0,.5.29,1,.86,2,2,1.31,1.5,1.97,2.26,2,3,.06,1.48-1.46,2.6-2,3-.38.28-2.53,1.87-5,1-2.06-.73-2.85-2.63-3-3Z"/>
    <path class="cls-7" d="M66.5,638.5c-.5-.6-1.59-1.96-2-4-.47-2.36.49-3.09,0-5-.52-2.04-1.82-2.03-3-4-1.4-2.33-.93-5.22,0-11,.91-5.67,1.74-5.95,2-6,1.04-.19,1.49,1.84,4,4,3.17,2.72,5.26,1.89,7,4,1.02,1.23.84,2.17,1,8,.23,8.31.71,10.74-1,14-1.39,2.66-2.71,2.95-3,3-2.19.4-4.31-2.17-5-3Z"/>
  </g>
  <g id="Lag_5">
    <path class="cls-6" d="M264.5,557.5c.87-.18,2.39-.65,5-1,3.93-.53,5.1-.09,7-1,1.11-.53,2.09-1.69,4-4,2.95-3.56,4.44-5.4,5-8,.4-1.83.22-3.26,0-5-.69-5.51-2.99-6.91-2-9,.8-1.69,2.45-1.11,5-4,.59-.67,1.39-1.59,2-3,1.51-3.51.44-6.86,0-8-.62-1.62-1.26-3.28-3-4-1.52-.63-3.7-.45-5,1-.14.16-1.28,1.47-1,3,.22,1.16,1.07,1.42,3,4,.94,1.25,1.06,1.63,1,2-.19,1.13-1.99,1.69-3,2-1.6.48-7.47,2.26-10-1-1.3-1.67-1.03-3.79-1-4,.36-2.53,2.58-4.05,7-7,2.8-1.86,4.23-2.8,6-3,3.69-.42,6.54,1.66,7,2,2.86,2.15,4.11,5.56,5,8,1,2.74,1.15,4.6,3,6,.51.39,1.79,1.35,3,1,2.39-.69,2.78-6,3-9,.35-4.83-.55-5.43,0-8,.99-4.62,4.4-4.91,7-9,4.39-6.9-2.13-11.03,1-24,.85-3.52,2.17-6.71,2-12-.03-.96-.1-1.5-1-7-1.93-11.77-2.2-12.69-2-15,.39-4.55,2-7.92,3-10,2.46-5.14,3.89-4.77,7-10,4.56-7.67,4.07-12.76,8-14,2.05-.64,4.72-.06,5,0,1.64.37,3.3.74,4,2,.79,1.42-.13,3.3-2,7-1.78,3.51-2.67,5.27-4,6-2.39,1.31-4.25.11-7,2-.56.39-1.38.96-2,2-1.42,2.38-.57,5.14,0,7,.43,1.41,1.33,4.19,4,6,.86.58,1.3.88,2,1,3.74.62,6.01-5.6,9-5,1.75.35,2.72,2.81,3,4,.57,2.36-.71,3.17-1,7-.17,2.29-.33,4.36,1,6,1.22,1.51,3.27,2.15,5,2,2.81-.24,5.17-2.62,6-5,1.88-5.38-4.87-8.55-4-15,.74-5.5,6.62-10.35,11-10,2.01.16,4.11,1.45,4,2-.1.5-1.9,0-3,1-.72.66-1.14,1.96,0,7,1.23,5.43,1.85,8.15,4,10,.38.33,3.59,3.03,6,2,2.39-1.02,2.43-5.03,3-9,1.55-10.88,6.67-19.06,11-26,4.63-7.4,5.48-5.66,8-11,3.94-8.35,1.28-11.42,5-21,3.38-8.71,7.03-9.89,6-14-1.16-4.63-6.24-5-11-12-2.5-3.67-1.29-5.81-4-9-.59-.69-3.5-3.99-8-5-4.49-1-7.11,1.05-13,3,0,0-11.55,3.82-25,2-5.69-.77-9.09-1.23-12-4-3.3-3.13-2.43-5.85-7-11-3.07-3.45-5.18-4.17-5-6,.3-2.96,6.04-3.2,7-7,.67-2.65-1.44-5.29-2-6-3.28-4.11-7.41-2.55-14-7-2.37-1.6-5.02-3.44-5-6,.02-2.08,1.8-4.44,4-5,5.25-1.33,10.32,8.31,13,7,1.66-.81,1.98-5.62,0-9-3.9-6.65-16.7-7.78-26-5-6.25,1.87-11.76,5.77-30,31-15.58,21.55-18.31,28.03-26,29-8.05,1.01-18.81-4.36-24-12-3.27-4.81-3.41-9.15-9-14-2.02-1.75-5.44-4.72-10-5-.21-.01-.43-.02-6,0-1.84.2-6.2.5-10-1-.97-.38-1.98-.92-4-2-1.72-.92-2.35-1.33-3-2-.67-.69-.76-1.03-1-1-.9.1-.28,4.89-2,10-.53,1.58-2.33,6.92-5,7-2.24.07-4.73-3.55-5-7-.27-3.39,1.73-4.89,5-11,.9-1.68,3.36-6.34,5-12,1.34-4.62,1.58-8.02,2-14,.52-7.36.75-11.07-1-13-2.93-3.23-9.65-2.21-11-2-2.7.42-4.8,1.41-5,1-.25-.51,2.9-2.14,6-6,1.45-1.81,2.34-2.94,2-4-.73-2.28-6.46-2.03-7-2-1.42.07-5.92.31-7,3-.36.89-.34,2.05,0,3,.6,1.64,1.88,1.81,2,3,.14,1.4-1.52,2.64-2,3-2,1.49-3.42.78-5,2-1.45,1.12-1.71,2.86-2,4-1.96,7.68-11.18,10.85-10,14,.59,1.58,3.61,2.67,5,3,.84.2,1.81.3,3,1,.16.1,2.19,1.29,2,2-.3,1.14-5.71-1.16-11,1-3.38,1.38-5.65,4.14-8,7-2.62,3.19-2.65,4.43-5,6-2.99,1.99-4.69,1.14-6,3-1.2,1.7-.79,3.84,0,8,.62,3.27,1.48,4.42,2,5,1.13,1.25,1.96,1.23,3,2,3.51,2.61,3.73,10.07,1,15-.66,1.2-1.79,3.16-4,4-.36.13-1.44.51-5,0-4.1-.58-6.16-.88-7-2-1.65-2.19,1.19-4.56,0-9-.85-3.19-3.21-5.29-4-6-3.18-2.85-5.89-2.64-6-4-.17-2.15,6.59-2.54,8-7,.78-2.47-.53-4.74,1-6,.93-.77,1.71-.18,3-1,1.7-1.09,2.79-3.69,2-5-.91-1.5-3.64-.25-5-2-1.04-1.34.05-2.73-1-4-.67-.81-1.83-1.12-5-1-4.64.17-5.16.95-8,1-5.13.1-7.69-2.36-9-1-.97,1.01-.28,3.12,0,4,1.08,3.34,3.31,4.09,6,7,3.16,3.41,4.33,6.94,6,12,1.1,3.34,2.05,6.21,1,7-.85.64-2.35-.56-9-4-4.43-2.29-5.61-2.71-7-3-1.58-.33-4.14-.86-7,0-3.61,1.09-4.97,3.58-6,3-1.23-.7.86-4.16-1-7-1.15-1.75-2.42-1.17-4-3-.76-.87-1.03-1.66-2-8-.71-4.61-1.06-6.94-1-8,.12-2.16.51-3.18,0-5-.55-1.96-1.94-4.17-3-4-.91.14-1.13,1.96-2,5-.46,1.61-1.31,3.74-3,8-2.51,6.31-3.67,6.9-6,13,0,0-1.15,3.01-2,6-1.79,6.3-1.18,9.9-1,23,.11,7.67,0,15.33,0,23,0,.24-.52,1.97,0,4,.34,1.34,1.18,3.05,2,3,.24-.02.43-.18,1-1,1.4-2.03,1.47-2.85,2-3,.83-.23,1.9,1.46,3,3,1.75,2.45,3.24,4.04,6,7,3.41,3.65,4.52,4,5,6,.16.67.3,1.73,1,2,1.04.41,2.15-1.37,3-1,.87.38,1.18,2.91,0,4-1.19,1.1-3.35.25-4,0-2.95-1.15-2.72-3.24-6-6-3.06-2.57-4.27-1.61-6-4-1.24-1.72-1.41-3.32-3-4-1.02-.44-2.25-.34-3,0-3.13,1.42-1.69,8.82-2,22-.18,7.56-.84,12.74-1,14-1.12,8.57-2.13,8.51-3,15-1.52,11.31,1.1,14.76,0,28-.49,5.89-.74,8.84-1,10-.94,4.12-2.24,6.82-1,8,1.15,1.1,3.67.13,4,0,.49-.19,2.32-.96,4-4,1.58-2.84,1.93-5.69,2-8,.26-8.25-2.96-12.22-1-14,1.36-1.24,4.02-.33,5,0,1.96.67,3.38,1.91,7,7,3.75,5.28,5.63,7.91,6,10,.74,4.16-1.2,4.95,0,9,.99,3.33,2.57,3.68,3,7,.4,3.08-.84,3.75,0,6,.8,2.16,2.14,2.1,4,5,1.16,1.81,2.11,3.29,2,5-.14,2.16-2.76,4.13-8,8-5,3.69-5.07,3.08-7,5-.36.36-1.77,1.78-4,3-1.46.8-2.31,1.26-3,1-1.6-.62-.92-4.67-1-10-.1-6.9-1.42-11.96-3-18-.86-3.31-2.11-8.11-3-8-1.02.12-1.01,6.7-1,13,.02,13.45,1.19,12.38,1,22-.1,4.99-.52,10.6,1,11,.6.16.92-.65,2-1,2.67-.86,5.26,2.64,9,5,.6.38,6.3,3.88,12,3,3.02-.47,3.43-1.76,11-7,9.09-6.3,11.4-6.45,13-6,1.43.4,2.6,1.98,5,5,3.33,4.2,2.92,5.19,5,7,2.13,1.86,5.81,3.66,10,3,.64-.1,6.39-1.02,8-5,1.27-3.15-1.32-5.07,0-9,1-2.97,3.41-4.62,4-5,3.16-2.04,5.21-.59,12-1,7.65-.46,9.18-2.55,13-1,3.12,1.26,5.14,3.88,6,5,2.55,3.31,2.16,5.26,5,8,.95.91,2.63,2.53,5,3,3.59.71,6.66-1.67,10-4,0,0,4.67-3.26,15-9,7.41-4.12,11.89-5.92,18-6,2.93-.04,7.84-.1,12,3,2.36,1.76,2.76,3.26,7,11,2.84,5.18,4.83,8.82,7,12,4.09,6,8.4,9.76,11,12,1.64,1.42,16.26,13.81,25,12Z"/>
    <path class="cls-6" d="M307.5,540.5c.1-.96,1.15-1.72,2-2,1.25-.42,1.84.26,3,0,1.23-.28,1.61-1.27,3-3,1-1.23,3.62-4.48,5-4,.97.34,1.24,2.47,1,4-.48,2.99-3.1,4.74-5,6-1.95,1.3-3.87,2.57-6,2-1.45-.39-3.14-1.68-3-3Z"/>
    <path class="cls-6" d="M345.5,534.5c-.68-1.6-1.83-4.38-2-8-.3-6.18,2.43-11.14,4-14,3.01-5.48,5.68-7.02,5-10-.16-.71-.33-.71-3-5-1.82-2.93-2.73-4.4-3-5-.43-.96-2.17-5.16-1-10,.33-1.38,1.14-4.69,3-5,1.69-.28,3.34,2.07,4,3,2.21,3.14,1.65,5.14,3,10,1.52,5.49,2.72,4.65,4,10,.64,2.67,1.76,5.26,2,8,.1,1.17.14,2.55,1,3,1.34.71,3.42-1.5,4-1,.55.48-1,2.82-2,5-1.8,3.94-.81,5.28-2,13-.85,5.52-1.31,8.32-3,10-2.49,2.47-6.94,3.67-10,2-1.9-1.04-2.67-2.86-4-6Z"/>
    <path class="cls-6" d="M331.5,495.5c1.29,1.49,3.72,2.81,5,2,.44-.28.63-.73,1-4,.57-5.09.29-5.63,0-6-1.04-1.32-3.31-1.78-5-1-1.21.56-1.78,1.59-2,2-1.16,2.19-.63,5.13,1,7Z"/>
  </g>
  <g id="Lag_6">
    <path class="cls-3" d="M56.5,282.5c.56.84,2.07,3.11,4,3,.69-.04,1.47-.38,2-1,1.52-1.77-.39-4.08,1-7,.06-.13,1.03-2.11,2-2,1.13.13,1.65,3.01,2,5,.98,5.61-.29,6.84,1,10,1.16,2.84,3.24,4.46,4,5,.74.52,2.57,1.83,5,2,2.4.17,3.43-.9,9-4,6.25-3.48,7.1-3.33,8-5,1.16-2.15,1.09-4.88,1-8-.08-3.04-.59-4.75,0-5,.15-.06.46-.08,4,4,0,0,.79.91,3,4,.88,1.22,1.17,1.69,1,2-.5.87-3.96-1.13-5,0-.92,1,.11,4.38,2,5,2.22.72,4.28-2.78,6-2,1.46.66.41,3.37,2,6,1.8,2.98,5.97,4.21,9,4,4.51-.31,7.46-3.85,10-7,7.61-9.42,5.04-16.84,12-21,2.1-1.25,4.62-1.94,5-4,.32-1.7-1.16-2.56-3-6-.86-1.61-3.98-7.43-2-10,1.02-1.32,2.39-.5,4-2,1.55-1.44,1.45-3.28,2-7,.43-2.94.33-.7,2-9,1.76-8.77,1.54-9.59,1-10-.9-.68-3.27.55-8,3-3.62,1.88-4.59,2.76-5,4-.53,1.61.43,2.18,0,4-.73,3.1-4.31,4.69-5,5-2.24,1-2.59.24-7,1-3.96.68-3.92,1.34-8,2-3.59.58-4.27.19-5,1-1.74,1.94,1.4,5.01,0,9-1.18,3.37-4.44,4.11-4,6,.43,1.88,3.87,2.08,4,4,.05.77-.46,1.38-1,2-1.61,1.85-3.26,1.76-6,3-2.51,1.13-4.37,2.66-6,4-2.54,2.09-3.21,3.26-4,3-1.16-.38-1.48-3.45-1-6,.69-3.71,2.87-5.18,7-10,1.94-2.27,5.18-6.04,8-11,2.29-4.01,1.98-4.72,5-10,4.49-7.85,6.25-8.19,7-8,.88.23.81,1.32,2,2,2.08,1.19,5.14-.52,6-1,7.29-4.07,7.56-12.76,12-13,1.19-.07,1.04.56,3,1,3.71.83,5.94-1.04,13-4,6.66-2.79,4.58-1.09,12-4,2.01-.79,3.84-1.57,6-1,2.14.56,3.46,2.15,5,4,3,3.61,2.73,5.52,5,7,.14.09,2.97,1.85,6,1,2.07-.58,3.23-2.11,4-3,1.65-1.91,5.1-3.61,12-7,7.6-3.74,11.46-5.6,15-5,3.23.54,3.05,1.87,6,2,4.57.2,6.46-2.92,12-4,.35-.07-.03.01,7,0,6.66-.01,7.8-.07,9-1,1.97-1.52,1.46-3.32,4-5,1.47-.98,3.51-1.6,4-1,.87,1.08-4.07,5.06-3,7,.73,1.32,4.08,1.42,6,0,1.56-1.15,1.84-3.05,2-3,.22.07.07,3.71-2,6-2.12,2.35-5.16.51-13,1-4.5.28-6.79.46-9,2-2.27,1.59-2.49,3.22-5,8-.92,1.75-6.67,12.72-9,12-.93-.29-1.29-2.42-1-4,.53-2.88,3.21-3.63,3-5-.24-1.59-4.08-2.08-9-3-11.67-2.17-11.05-3.29-15-3-7.07.52-12.12,4.32-13,5-5.01,3.88-3.88,6.41-10,11-2.15,1.61-3.99,2.58-5,5-.96,2.3-.33,3.93,0,7,.46,4.31-.36,8.87-2,18-.86,4.78-1.19,5.18-1,7,.37,3.61,2.13,6.7,4,10,2.37,4.17,2.82,3.68,3,5,.75,5.37-7.23,8.7-6,13,.42,1.48,1.8,2.59,3,3,3.36,1.15,5.86-2.97,9-2,2.44.76,3.66,4.11,4,6,.87,4.86-2.61,8.04-1,10,.73.88,1.76.62,4,1,0,0,3.94.66,9,4,2.39,1.58,3.09,2.86,8,10,4.89,7.11,7.37,10.69,9,12,1.24.99,6.24,5.02,13,5,6.65-.01,11.39-3.93,15-7,7.18-6.11,7.66-10.35,16-23,5.6-8.49,8.88-13.47,15-19,1.68-1.52,11.05-9.82,23-12,2.88-.52,5.37-.59,8,0,5.81,1.31,8.67,6.8,10,6,.9-.54.19-3.26,0-4,0,0-.55-2.14-4-20-.68-3.53-1.87-9.92-1-18,.1-.91.55-4.92,2-10,.79-2.77,1.68-5.18,6-15,3.84-8.74,3.43-7.51,4-9,3.64-9.58,2.12-11.91,5-19,1.11-2.72,1.2-2.06,9-14,5.41-8.29,8.14-12.49,9-15,1.79-5.25.67-7.03,0-21-.7-14.65-1.05-21.97,0-29,1.32-8.83,3.36-12.79,1-18-2.12-4.7-6.84-3.84-10-9-2.19-3.57-2.15-7.05-2-13,.2-8.16.38-15.52,5-22,2.61-3.66,3.37-2.46,15-13,5.85-5.3,7.54-7.31,7-9-.88-2.73-7.11-3.11-10-3-4.77.19-8.33,2.04-10,3-7.57,4.36-8.74,9.16-15,16-6.27,6.85-12.46,10.05-22,15-13.51,7-17.65,5.58-19,5-3.27-1.42-4.68-4.21-8-4-1.73.11-3.63,1.01-7,5-5.21,6.15-4.67,8.71-9,15-3.88,5.63-5.26,4.97-10,12-1.5,2.23-3.37,5.03-5,9-2.28,5.55-1.59,7.32-3,12-2.31,7.67-5.45,7.29-12,19-3.63,6.5-2.84,6.93-6,12-1.09,1.75-4.72,7.37-12,14-9.33,8.51-19.62,17.88-33,18-8.13.07-7.01-3.37-18-4-14-.81-26.05,4.17-28,5-7.34,3.12-6.95,4.64-11,5-8.97.8-14.03-6.4-21-4-2.52.87-3.94,2.52-6,5-14.03,16.88-18,23-18,23-15.54,23.99-15.17,22.43-18,28-3.58,7.05-5.39,12.37-9,23-1.4,4.12-5.55,16.67-2,22Z"/>
    <path class="cls-3" d="M167.5,246.5c-.97-.47-2.05-1.55-2-3,.06-1.62,1.53-3.02,3-3,1.11.02,1.85.84,2,1,1.23,1.36,1.41,4,0,5-1.19.85-2.86.07-3,0Z"/>
    <path class="cls-3" d="M475.5,300.5c-.3-1.1-.84-3.06,0-5,1.41-3.27,5.64-4.03,11-5,3.48-.63,5.22-.94,6,0,1.77,2.15-2.89,8.5-5,11-2.49,2.96-4.51,5.35-7,5-2.8-.4-4.46-4.05-5-6Z"/>
    <path class="cls-3" d="M412.5,171.5c-.16-2.79.13-5.8,2-7,1.36-.87,2.46-.07,4-1,.86-.52,1.78-1.53,3-7,1.3-5.8.74-6.78,2-8,1.63-1.58,3.08-.45,7-2,1.57-.62,5.65-2.24,6-5,.25-1.97-1.47-3.96-3-5-2.15-1.46-4.59-1.52-16,1-9.83,2.17-11.46,2.97-13,4-1.91,1.28-3.61,3.18-7,7-3.68,4.13-4.32,5.65-4,7,.19.79.65,1.26,3,3,6.64,4.91,7.96,4.86,9,7,.9,1.84.47,3.01,2,5,.6.78,1.6,2.05,3,2,.97-.03,1.68-.67,2-1Z"/>
  </g>
  <g id="Lag_7">
    <path class="cls-4" d="M898.5,679.5c.33-6.4,1.08-5.05,2-14,.75-7.26.64-11.96,4-16,1.31-1.57,2.23-1.96,3-2,2.53-.14,3.74,3.42,7,7,3.98,4.37,8.75,6.29,13,8,6.77,2.72,8.39,1.38,11,4,3.07,3.08,1.41,5.52,5,11,1.64,2.5,4.07,6.22,8,7,4.23.85,6.62-2.42,9-1,1.96,1.17,2,4.36,2,9,0,4.47-.57,6.8-2,15-1.6,9.16-1.58,10.23-3,12-3.77,4.7-10.17,4.98-11,5-2.89.08-6.3-1.61-13-5q-16.92-8.56-18-9c-6.41-2.48-8.34-2.33-11-5-3.04-3.06-3.95-6.74-5-11-1.43-5.82-1.23-10.51-1-15Z"/>
  </g>
  <g id="Lag_9">
    <text class="cls-10" transform="translate(399.09 78.28)"><tspan class="cls-16"><tspan x="0" y="0">Tilskade</tspan><tspan class="cls-20" x="107.34" y="0">k</tspan><tspan x="121.9" y="0">omne og Dræbte i Spiritusuheld 2022</tspan></tspan><tspan class="cls-17"><tspan class="cls-20" x="210.11" y="69.6">F</tspan><tspan x="232.26" y="69.6">o</tspan><tspan class="cls-23" x="255.6" y="69.6">r</tspan><tspan x="272.01" y="69.6">delt på </tspan><tspan class="cls-18" x="415.92" y="69.6">R</tspan><tspan class="cls-23" x="442.28" y="69.6">e</tspan><tspan x="466.49" y="69.6">gioner</tspan></tspan></text>
    <text class="cls-11" transform="translate(206.32 874.17)"><tspan x="0" y="0">D</tspan><tspan class="cls-19" x="6.22" y="0">a</tspan><tspan x="11.42" y="0">taene </tspan><tspan class="cls-26" x="38.98" y="0">r</tspan><tspan x="42.66" y="0">epræsente</tspan><tspan class="cls-26" x="89.33" y="0">r</tspan><tspan x="93.01" y="0">er kun de uheld, som er </tspan><tspan class="cls-20" x="198.37" y="0">k</tspan><tspan x="203.43" y="0">ommet til politiets </tspan><tspan class="cls-20" x="286.52" y="0">k</tspan><tspan x="291.59" y="0">endsk</tspan><tspan class="cls-30" x="317.82" y="0">a</tspan><tspan x="323.23" y="0">b. </tspan><tspan class="cls-18" x="333.9" y="0">R</tspan><tspan x="339.92" y="0">eelle tal kan væ</tspan><tspan class="cls-26" x="409.71" y="0">r</tspan><tspan x="413.39" y="0">e høje</tspan><tspan class="cls-26" x="440.06" y="0">r</tspan><tspan x="443.74" y="0">e på </tspan><tspan class="cls-24" x="465.09" y="0">g</tspan><tspan class="cls-29" x="470.57" y="0">r</tspan><tspan x="474.38" y="0">und a</tspan><tspan class="cls-22" x="498.39" y="0">f</tspan><tspan x="501.97" y="0" xml:space="preserve"> unde</tspan><tspan class="cls-28" x="525.98" y="0">r</tspan><tspan class="cls-25" x="529.87" y="0">r</tspan><tspan class="cls-30" x="533.56" y="0">a</tspan><tspan x="538.97" y="0">ppo</tspan><tspan class="cls-27" x="554.98" y="0">r</tspan><tspan x="558.93" y="0">tering.</tspan></text>
    <text class="cls-9" transform="translate(201.25 260.56)"><tspan class="cls-14"><tspan class="cls-18" x="0" y="0">R</tspan><tspan class="cls-23" x="6.02" y="0">e</tspan><tspan x="11.56" y="0">gion No</tspan><tspan class="cls-23" x="44.9" y="0">r</tspan><tspan x="48.65" y="0">djylland</tspan></tspan><tspan class="cls-12"><tspan x="2.28" y="14.4">55 pe</tspan><tspan class="cls-23" x="38.3" y="14.4">r</tspan><tspan x="43.92" y="14.4">soner</tspan></tspan></text>
    <text class="cls-8" transform="translate(134.21 425.06)"><tspan class="cls-18" x="0" y="0">R</tspan><tspan class="cls-23" x="9.04" y="0">e</tspan><tspan x="17.34" y="0">gion Midtjylland</tspan><tspan x="21.51" y="14.4">71 pe</tspan><tspan class="cls-23" x="57.53" y="14.4">r</tspan><tspan x="63.15" y="14.4">soner</tspan></text>
    <text class="cls-9" transform="translate(122.23 608.61)"><tspan class="cls-14"><tspan class="cls-18" x="0" y="0">R</tspan><tspan class="cls-23" x="6.02" y="0">e</tspan><tspan x="11.56" y="0">gion S</tspan><tspan class="cls-19" x="38.68" y="0">y</tspan><tspan class="cls-30" x="43.43" y="0">d</tspan><tspan x="48.84" y="0">danma</tspan><tspan class="cls-29" x="78.18" y="0">r</tspan><tspan x="82" y="0">k</tspan></tspan><tspan class="cls-12"><tspan x="4.51" y="14.4">51 pe</tspan><tspan class="cls-23" x="40.53" y="14.4">r</tspan><tspan x="46.16" y="14.4">soner</tspan></tspan></text>
    <text class="cls-9" transform="translate(472.21 614.41)"><tspan class="cls-14"><tspan class="cls-18" x="0" y="0">R</tspan><tspan class="cls-23" x="6.02" y="0">e</tspan><tspan x="11.56" y="0">gion Sjælland</tspan></tspan><tspan class="cls-12"><tspan x="-3.82" y="14.4">48 pe</tspan><tspan class="cls-23" x="32.2" y="14.4">r</tspan><tspan x="37.83" y="14.4">soner</tspan></tspan></text>
    <text class="cls-9" transform="translate(571.14 522.24)"><tspan class="cls-13"><tspan class="cls-18" x="0" y="0">R</tspan><tspan class="cls-23" x="4.52" y="0">e</tspan><tspan x="8.67" y="0">gion </tspan></tspan><tspan class="cls-13"><tspan x="-8.99" y="7.2">H</tspan><tspan class="cls-20" x="-3.99" y="7.2">o</tspan><tspan class="cls-21" x="-.19" y="7.2">v</tspan><tspan x="3.32" y="7.2">edstaden</tspan></tspan><tspan class="cls-15"><tspan x="-20.29" y="19.2">83 pe</tspan><tspan class="cls-23" x="9.72" y="19.2">r</tspan><tspan x="14.41" y="19.2">soner</tspan></tspan></text>
    <text class="cls-9" transform="translate(906.78 686.86)"><tspan class="cls-14"><tspan x="0" y="0">Bo</tspan><tspan class="cls-27" x="11.56" y="0">r</tspan><tspan x="15.51" y="0">nholm </tspan></tspan><tspan class="cls-12"><tspan x="-6.06" y="14.4">1 pe</tspan><tspan class="cls-23" x="21.95" y="14.4">r</tspan><tspan x="27.57" y="14.4">son</tspan></tspan></text>
  </g>
</svg>